<!DOCTYPE svg PUBLIC "-//W3C//DTD SVG 1.1//EN" "https://www.w3.org/Graphics/SVG/1.1/DTD/svg11.dtd"><svg xmlns="http://www.w3.org/2000/svg" class="sc-bhqpjJ eSCxpi graph" data-testid="graph" role="img" aria-labelledby="polymath-graph-title" width="463" height="1131"><title id="polymath-graph-title">Workflow Studio State Machine Graph</title><g transform="translate(12,12)" class="new-look-graph"><g class="nodes"><g class="node-container" transform="translate(219.5,22)"><g><circle class="sc-hTUWRQ joQcYQ shape" r="22"/><text class="sc-dycYrt cVulIM label"><tspan xml:space="preserve" text-anchor="middle" alignment-baseline="central">Start</tspan></text></g></g><g class="node-container" transform="translate(219.5,103.5)"><g class="sc-bDpDS jYFWGV node state Pass" data-testid="graph-Set inputs variables" data-state-id="Set inputs variables" data-state-type="Pass"><g class="new-look-state-node "><rect x="-120" y="-24.5" width="240" height="49" rx="3" ry="3"/><g class="handle" transform="translate(-120,-24.5)"><path d="M5,16 L5,34 M8,16 L8,34"/></g><g class="icon" transform="translate(-104,-24)"><rect fill="var(--color-background-container-header-etndi4, #fafafa)" x="0.0361026108" y="0.0181291967" width="48" height="48"/><line x1="47.5" y1="0.49122807" x2="47.5" y2="47.5" stroke="var(--color-board-placeholder-active-qurjro, #d5dbdb)" stroke-linecap="square"/><line x1="0.5" y1="0.49122807" x2="0.5" y2="47.5" stroke="var(--color-board-placeholder-active-qurjro, #d5dbdb)" stroke-linecap="square"/><use href="#icon-flow-pass"/></g><g class="text-lines" transform="translate(-48,-24.5)"><text transform="translate(0,17)" class="line1"><tspan xml:space="preserve" text-anchor="start">Pass state</tspan></text><text transform="translate(0,35.5)" class="line2 label"><tspan xml:space="preserve" text-anchor="start">Set inputs variables</tspan></text></g></g></g></g><g class="node-container" transform="translate(219.5,187.5)"><g class="sc-bDpDS jYFWGV node state Task" data-testid="graph-Get Libraries in SampleSheet" data-state-id="Get Libraries in SampleSheet" data-state-type="Task"><g class="new-look-state-node "><rect x="-132.5" y="-24.5" width="265" height="49" rx="3" ry="3"/><g class="handle" transform="translate(-132.5,-24.5)"><path d="M5,16 L5,34 M8,16 L8,34"/></g><g class="icon" transform="translate(-116.5,-24)"><rect fill="var(--color-background-container-header-etndi4, #fafafa)" x="0.0361026108" y="0.0181291967" width="48" height="48"/><line x1="47.5" y1="0.49122807" x2="47.5" y2="47.5" stroke="var(--color-board-placeholder-active-qurjro, #d5dbdb)" stroke-linecap="square"/><line x1="0.5" y1="0.49122807" x2="0.5" y2="47.5" stroke="var(--color-board-placeholder-active-qurjro, #d5dbdb)" stroke-linecap="square"/><use href="#icon-service-lam" aria-hidden="true"><title>Lambda</title></use></g><g class="text-lines" transform="translate(-60.5,-24.5)"><text transform="translate(0,17)" class="line1"><tspan xml:space="preserve" text-anchor="start">Lambda: Invoke</tspan></text><text transform="translate(0,35.5)" class="line2 label"><tspan xml:space="preserve" text-anchor="start">Get Libraries in SampleSheet</tspan></text></g></g></g></g><g class="node-container" transform="translate(219.5,595.5)"><g class="sc-bDpDS jYFWGV node state container Map" data-state-id="For each library (batched)" data-state-type="Map"><g class="new-look-state-node "><g class="bounding-box" transform="translate(0,5)"><g class="shape new-look-state-node-sub"><rect rx="3" ry="3" x="-219.5" y="-348.5" width="439" height="692" class="sc-eoVZPG bMWWOR"/><rect x="-107.5" y="-304.5" width="215" height="26" class="sc-eoVZPG sc-dWZqqJ bMWWOR borwS"/><svg x="-92.5" y="-308" width="25" height="25" viewBox="0 -8 25 25" xmlns="http://www.w3.org/2000/svg"><g id="Symbols" stroke="none" stroke-width="1" fill="none" fill-rule="evenodd" opacity="0.867687044"><g id="ONE-MAP---graph---inline-map" transform="translate(-55.000000, -217.000000)" fill="#687078" fill-rule="nonzero"><g id="Group-15" transform="translate(36.000000, 213.000000)"><g id="script" transform="translate(19.000000, 4.000000)"><path d="M11.60121,15.4462891 C12.5601274,15.4462891 13.2010167,15.2896753 13.5238779,14.9764478 C13.8467393,14.6632203 14.0081699,14.0388817 14.0081699,13.1034319 L14.0081699,12.7383526 C14.0081699,12.1034319 14.1135348,10.6632203 14.3242646,10.4177176 C14.5349944,10.172215 14.9129549,10.0494637 15.4581458,10.0494637 L15.8177397,10.0494637 L15.8177397,6.83676525 L15.4581458,6.83676525 C14.9129549,6.83676525 14.5349944,6.71507213 14.3242646,6.47168589 C14.1135348,6.22829964 14.0081699,4.7870298 14.0081699,4.14787636 L14.0081699,3.782797 C14.0081699,2.84734726 13.8467393,2.22406684 13.5238779,1.91295573 C13.2010167,1.60184462 12.5601274,1.44628906 11.60121,1.44628906 L9.8177397,1.44628906 L9.8177397,3.65263827 L10.519528,3.65263827 C10.9255213,3.65263827 11.1971501,3.74364356 11.3344144,3.92565414 C11.4716788,4.10766472 11.540311,5.49708271 11.540311,6.09390811 L11.540311,6.42089224 C11.540311,7.11930494 11.6340761,7.61031023 11.8216063,7.89390811 C12.0091365,8.17750599 12.3464975,8.35951658 12.8336895,8.43993986 C12.3503642,8.52882875 12.0139698,8.71718853 11.8245063,9.00501922 C11.6350428,9.29284991 11.540311,9.7838552 11.540311,10.4780351 L11.540311,10.7796224 C11.540311,11.3849134 11.4707122,12.7785642 11.3315144,12.9605748 C11.1923168,13.1425854 10.9216547,13.2335906 10.519528,13.2335906 L9.8177397,13.2335906 L9.8177397,15.4462891 L11.60121,15.4462891 Z" id="}"/><path d="M3.03295652,15.4462891 C3.99187387,15.4462891 4.63276319,15.2896753 4.95562448,14.9764478 C5.27848577,14.6632203 5.43991641,14.0388817 5.43991641,13.1034319 L5.43991641,12.7383526 C5.43991641,12.1034319 5.54528132,10.6632203 5.75601114,10.4177176 C5.96674096,10.172215 6.34470133,10.0494637 6.88989225,10.0494637 L7.24948625,10.0494637 L7.24948625,6.83676525 L6.88989225,6.83676525 C6.34470133,6.83676525 5.96674096,6.71507213 5.75601114,6.47168589 C5.54528132,6.22829964 5.43991641,4.7870298 5.43991641,4.14787636 L5.43991641,3.782797 C5.43991641,2.84734726 5.27848577,2.22406684 4.95562448,1.91295573 C4.63276319,1.60184462 3.99187387,1.44628906 3.03295652,1.44628906 L1.24948625,1.44628906 L1.24948625,3.65263827 L1.95127455,3.65263827 C2.35726778,3.65263827 2.62889659,3.74364356 2.76616097,3.92565414 C2.90342535,4.10766472 2.97205754,4.49708271 2.97205754,5.09390811 L2.97205754,5.42089224 C2.97205754,6.11930494 3.06582265,7.61031023 3.25335285,7.89390811 C3.44088306,8.17750599 3.7782441,8.35951658 4.26543598,8.43993986 C3.7821107,8.52882875 3.44571631,8.71718853 3.25625281,9.00501922 C3.0667893,9.29284991 2.97205754,9.7838552 2.97205754,10.4780351 L2.97205754,10.7796224 C2.97205754,11.3849134 2.9024587,12.7785642 2.76326102,12.9605748 C2.62406334,13.1425854 2.35340119,13.2335906 1.95127455,13.2335906 L1.24948625,13.2335906 L1.24948625,15.4462891 L3.03295652,15.4462891 Z" id="}-copy" transform="translate(4.249486, 8.446289) scale(-1, 1) translate(-4.249486, -8.446289) "/></g></g></g></g><style data-styled="true" data-styled-version="5.3.11">.jYFWGV{cursor:pointer;}/*!sc*/
data-styled.g121[id="sc-bDpDS"]{content:"jYFWGV,"}/*!sc*/
.enMGbT{stroke:#555;background-color:#555;stroke-width:1px;}/*!sc*/
data-styled.g122[id="sc-bVHCgj"]{content:"enMGbT,"}/*!sc*/
.ifZaxh{fill:var(--color-text-form-secondary-btuye6,#687078);}/*!sc*/
data-styled.g150[id="sc-czkgLR"]{content:"ifZaxh,"}/*!sc*/
.cVulIM{font-weight:400;font-size:12px;line-height:16px;font-family:Amazon Ember,Arial,Roboto,Arial,sans-serif;text-shadow:none;fill:var(--color-text-button-primary-default-qh066v,#16191f);}/*!sc*/
data-styled.g151[id="sc-dycYrt"]{content:"cVulIM,"}/*!sc*/
.joQcYQ{fill:#fff9cc;stroke:var(--color-text-form-secondary-btuye6,#687078);stroke-width:0.6px;}/*!sc*/
data-styled.g152[id="sc-hTUWRQ"]{content:"joQcYQ,"}/*!sc*/
.eKVsJw{fill:#fff9cc;stroke:var(--color-text-form-secondary-btuye6,#687078);stroke-width:0.6px;}/*!sc*/
data-styled.g153[id="sc-lizKOf"]{content:"eKVsJw,"}/*!sc*/
.bMWWOR{stroke:var(--color-border-control-default-ie1oqq,#687078);stroke-width:1px;fill:var(--color-background-container-content-x1dxuu,#ffffff);opacity:0.5;}/*!sc*/
.node &gt; .new-look-state-node.has-errors &gt; .bounding-box &gt; .sc-eoVZPG{stroke:var(--color-border-status-error-si9bvu,#d13212);fill:var(--color-background-status-error-qqw3y6,#fdf3f1);}/*!sc*/
.selected &gt; .node &gt; .new-look-state-node &gt; .bounding-box &gt; .sc-eoVZPG{stroke:var(--color-border-status-info-fjyzd6,#0073bb);fill:var(--color-background-status-info-60ssq8,#f1faff);}/*!sc*/
.selected &gt; .node &gt; .new-look-state-node.has-errors &gt; .bounding-box &gt; .sc-eoVZPG{stroke:var(--color-border-status-error-si9bvu,#d13212);fill:#fde0da;}/*!sc*/
data-styled.g154[id="sc-eoVZPG"]{content:"bMWWOR,"}/*!sc*/
.borwS{opacity:1;}/*!sc*/
data-styled.g155[id="sc-dWZqqJ"]{content:"borwS,"}/*!sc*/
</style><style>
.new-look-state-node &gt; rect:first-of-type {
  stroke: #687078;
  stroke-width: 1px;
  fill: #FFFFFF;
}

.new-look-state-node .error-icon circle {
 stroke-linejoin: round;
}

.new-look-state-node .error-icon circle, .new-look-state-node .error-icon path {
 stroke: var(--color-border-status-error-si9bvu, #d13212);
 fill: none;
 stroke-width: 2px;
}

.new-look-state-node.has-errors &gt; rect:first-of-type {
 stroke: var(--color-border-status-error-si9bvu, #d13212);
 fill: var(--color-background-status-error-qqw3y6, #fdf3f1);
}

.new-look-state-node.has-errors &gt; .bounding-box &gt; .new-look-state-node-sub &gt; rect {
  stroke: var(--color-border-status-error-si9bvu, #d13212);
  fill: var(--color-background-status-error-qqw3y6, #fdf3f1);
}

.new-look-state-node .handle path {
  stroke: var(--color-border-dropdown-item-hover-t6obhh, #879596);
  stroke-width: 1px;
  fill: none;
}

.new-look-state-node {
  font-weight: 400;
  font-family: Amazon Ember, Arial, Roboto, Arial, sans-serif;
  text-shadow: none;
}

.new-look-state-node .line1 {
  fill: #687078;
  font-size: 12px;
}

.new-look-state-node .line2 {
  fill: #16191f;
}

.selected.node &gt; .new-look-state-node &gt; rect,
.selected.node &gt; .new-look-state-node &gt; .new-look-state-node &gt; rect,
.selected.node &gt; .new-look-state-node &gt; .bounding-box &gt; rect,
.selected.node &gt; .new-look-state-node.has-errors &gt; rect,
.selected.node &gt; .new-look-state-node.has-errors &gt; .bounding-box &gt; rect,
.selected.node &gt; .new-look-state-node.has-errors &gt; .new-look-state-node &gt; rect,
.selected.node &gt; .new-look-state-node &gt; .bounding-box &gt; .new-look-state-node-sub &gt; rect
 {
  stroke: var(--color-border-status-info-fjyzd6, #0073bb);
  fill: var(--color-background-status-info-60ssq8, #f1faff);
  stroke-width: 1px;
}

.new-look-state-node-sub .item-source.not-specified {
  height: 15px;
  color: #687078;
  font-family: "Amazon Ember";
  font-size: 12px;
  letter-spacing: 0;
  line-height: 16px;
  font-weight: 400;
}
.new-look-state-node-sub .item-source .item-source_name{
  font-weight: 600;
}
.new-look-state-node-sub .item-source.not-specified .item-source_name{
  font-weight: 400;
}

.new-look-state-node-sub .item-source.not-specified {
  font-style: italic;
}

.new-look-state-node-sub &gt; rect,
.new-look-state-node &gt; .bounding-box &gt; rect {
  stroke: var(--color-border-control-default-ie1oqq, #687078);
  fill: #ffffff;
}

.new-look-graph .drag-source {
  opacity: 0.2;
}

.new-look-graph .edge, .new-look-graph path.starting-connection {
  stroke-width: 1px;
  stroke: var(--color-text-form-secondary-btuye6, #687078);
  marker-end: url(#large-arrowhead);
}

.new-look-graph .edge-label {
  cursor: pointer;
}

.new-look-graph .edge-label rect {
  stroke-width: 1px;
  stroke: var(--color-border-control-default-ie1oqq, #687078);
  fill: #fafafa;
}

.new-look-graph .edge-label.selected rect {
  stroke: var(--color-border-status-info-fjyzd6, #0073bb);
  fill: var(--color-background-status-info-60ssq8, #f1faff);
  stroke-width: 0.6px;
}



.new-look-graph .edge-label .label {
  fill: var(--color-text-form-secondary-btuye6, #687078);
  font-family: Amazon Ember, Arial, Roboto, Arial, sans-serif;
}

/* centering the shape text */
@-moz-document url-prefix() {
  .new-look-graph .shape + text,
  .new-look-graph .edge-label text {
    transform: translateY(3.5px);
  }
}

.new-look-graph .edge path {
  marker-end: url(#large-arrowhead) !important;
}

.new-look-graph .edge.selected path{
  stroke: var(--color-border-status-info-fjyzd6, #0073bb);
  stroke-width: 1.1px;
}

.new-look-graph .edge.dragging-over path, .new-look-graph  g.dragging-over .starting-connection {
  stroke: #5C86FF;
  stroke-width: 2px;
}

.new-look-graph .edge.dragging-over path, .new-look-graph .dragging-over path.starting-connection {
  marker-end: url(#large-highlighted-arrowhead) !important;
}

.new-look-graph .edge.dragging-over .edge-label text {
  fill: #5C86FF;
}

#large-highlighted-arrowhead {
  fill: #5C86FF;
}

#large-highlighted-arrowhead path {
  stroke: none;
}

.new-look-graph .edge.drop-not-supported path, g.drop-not-supported .starting-connection {
  stroke: red;
}

.new-look-graph .edge.drop-not-supported .edge-label text {
  fill: red;
}

.new-look-graph .edge.drop-not-supported path {
  marker-end: url(#large-error-arrowhead) !important;
}

#large-error-arrowhead {
  fill: red;
}

.node-container * &gt; .icon  {
  &gt; rect {
    fill: #fafafa;
  }
  &gt; line {
    stroke: #d5dbdb;
  }
}


.node.Placeholder.dragging-over rect {
  stroke: var(--color-border-status-info-fjyzd6, #0073bb);
  fill: var(--color-background-status-info-60ssq8, #f1faff);
  stroke-width: 2px;
}

.node.Placeholder.dragging-over .label {
  fill: var(--color-text-status-info-f9d9f2, #0073bb);
}

g.Placeholder rect {
  stroke-dasharray: 5 4;
  stroke: var(--color-border-dropdown-item-hover-t6obhh, #879596);
  fill: #ffffff;
  stroke-width: 1px;
}

g.Placeholder .label {
  font-style: italic;
  fill: var(--color-text-input-placeholder-lhl4lu, #687078);
}

.node.Placeholder.drop-not-supported rect {
  stroke: red;
}

.node.Placeholder.drop-not-supported .label {
  fill: red;
}
</style><style>.line2 { font-size: 14px }</style></svg><text x="-67.5" y="-287.5" class="line1"><tspan class="item-source" xml:space="preserve" text-anchor="start"><tspan>Item source</tspan><tspan class="item-source_name"><tspan>: JSON Payload</tspan></tspan></tspan></text></g><g class="content" transform="translate(-219.5,-348.5)"><g class="branch" transform="translate(20,124)"><g transform=""><g class="nodes"><g class="node-container" transform="translate(199.5,24.5)"><g class="sc-bDpDS jYFWGV node state Pass" data-testid="graph-Get vars inside map" data-state-id="Get vars inside map" data-state-type="Pass"><g class="new-look-state-node "><rect x="-120" y="-24.5" width="240" height="49" rx="3" ry="3"/><g class="handle" transform="translate(-120,-24.5)"><path d="M5,16 L5,34 M8,16 L8,34"/></g><g class="icon" transform="translate(-104,-24)"><rect fill="var(--color-background-container-header-etndi4, #fafafa)" x="0.0361026108" y="0.0181291967" width="48" height="48"/><line x1="47.5" y1="0.49122807" x2="47.5" y2="47.5" stroke="var(--color-board-placeholder-active-qurjro, #d5dbdb)" stroke-linecap="square"/><line x1="0.5" y1="0.49122807" x2="0.5" y2="47.5" stroke="var(--color-board-placeholder-active-qurjro, #d5dbdb)" stroke-linecap="square"/><use href="#icon-flow-pass"/></g><g class="text-lines" transform="translate(-48,-24.5)"><text transform="translate(0,17)" class="line1"><tspan xml:space="preserve" text-anchor="start">Pass state</tspan></text><text transform="translate(0,35.5)" class="line2 label"><tspan xml:space="preserve" text-anchor="start">Get vars inside map</tspan></text></g></g></g></g><g class="node-container" transform="translate(199.5,108.5)"><g class="sc-bDpDS jYFWGV node state Task" data-testid="graph-Get BCLConvert Data from SampleSheet" data-state-id="Get BCLConvert Data from SampleSheet" data-state-type="Task"><g class="new-look-state-node "><rect x="-169" y="-24.5" width="338" height="49" rx="3" ry="3"/><g class="handle" transform="translate(-169,-24.5)"><path d="M5,16 L5,34 M8,16 L8,34"/></g><g class="icon" transform="translate(-153,-24)"><rect fill="var(--color-background-container-header-etndi4, #fafafa)" x="0.0361026108" y="0.0181291967" width="48" height="48"/><line x1="47.5" y1="0.49122807" x2="47.5" y2="47.5" stroke="var(--color-board-placeholder-active-qurjro, #d5dbdb)" stroke-linecap="square"/><line x1="0.5" y1="0.49122807" x2="0.5" y2="47.5" stroke="var(--color-board-placeholder-active-qurjro, #d5dbdb)" stroke-linecap="square"/><use href="#icon-service-lam" aria-hidden="true"><title>Lambda</title></use></g><g class="text-lines" transform="translate(-97,-24.5)"><text transform="translate(0,17)" class="line1"><tspan xml:space="preserve" text-anchor="start">Lambda: Invoke</tspan></text><text transform="translate(0,35.5)" class="line2 label"><tspan xml:space="preserve" text-anchor="start">Get BCLConvert Data from SampleSheet</tspan></text></g></g></g></g><g class="node-container" transform="translate(199.5,312.5)"><g class="sc-bDpDS jYFWGV node state container Map" data-state-id="For each library" data-state-type="Map"><g class="new-look-state-node "><g class="bounding-box" transform="translate(0,5)"><g class="shape new-look-state-node-sub"><rect rx="3" ry="3" x="-199.5" y="-144.5" width="399" height="284" class="sc-eoVZPG bMWWOR"/><rect x="-105" y="-100.5" width="210" height="26" class="sc-eoVZPG sc-dWZqqJ bMWWOR borwS"/><svg x="-90" y="-104" width="25" height="25" viewBox="0 -8 25 25" xmlns="http://www.w3.org/2000/svg"><g id="Symbols" stroke="none" stroke-width="1" fill="none" fill-rule="evenodd" opacity="0.867687044"><g id="ONE-MAP---graph---inline-map" transform="translate(-55.000000, -217.000000)" fill="#687078" fill-rule="nonzero"><g id="Group-15" transform="translate(36.000000, 213.000000)"><g id="script" transform="translate(19.000000, 4.000000)"><path d="M11.60121,15.4462891 C12.5601274,15.4462891 13.2010167,15.2896753 13.5238779,14.9764478 C13.8467393,14.6632203 14.0081699,14.0388817 14.0081699,13.1034319 L14.0081699,12.7383526 C14.0081699,12.1034319 14.1135348,10.6632203 14.3242646,10.4177176 C14.5349944,10.172215 14.9129549,10.0494637 15.4581458,10.0494637 L15.8177397,10.0494637 L15.8177397,6.83676525 L15.4581458,6.83676525 C14.9129549,6.83676525 14.5349944,6.71507213 14.3242646,6.47168589 C14.1135348,6.22829964 14.0081699,4.7870298 14.0081699,4.14787636 L14.0081699,3.782797 C14.0081699,2.84734726 13.8467393,2.22406684 13.5238779,1.91295573 C13.2010167,1.60184462 12.5601274,1.44628906 11.60121,1.44628906 L9.8177397,1.44628906 L9.8177397,3.65263827 L10.519528,3.65263827 C10.9255213,3.65263827 11.1971501,3.74364356 11.3344144,3.92565414 C11.4716788,4.10766472 11.540311,5.49708271 11.540311,6.09390811 L11.540311,6.42089224 C11.540311,7.11930494 11.6340761,7.61031023 11.8216063,7.89390811 C12.0091365,8.17750599 12.3464975,8.35951658 12.8336895,8.43993986 C12.3503642,8.52882875 12.0139698,8.71718853 11.8245063,9.00501922 C11.6350428,9.29284991 11.540311,9.7838552 11.540311,10.4780351 L11.540311,10.7796224 C11.540311,11.3849134 11.4707122,12.7785642 11.3315144,12.9605748 C11.1923168,13.1425854 10.9216547,13.2335906 10.519528,13.2335906 L9.8177397,13.2335906 L9.8177397,15.4462891 L11.60121,15.4462891 Z" id="}"/><path d="M3.03295652,15.4462891 C3.99187387,15.4462891 4.63276319,15.2896753 4.95562448,14.9764478 C5.27848577,14.6632203 5.43991641,14.0388817 5.43991641,13.1034319 L5.43991641,12.7383526 C5.43991641,12.1034319 5.54528132,10.6632203 5.75601114,10.4177176 C5.96674096,10.172215 6.34470133,10.0494637 6.88989225,10.0494637 L7.24948625,10.0494637 L7.24948625,6.83676525 L6.88989225,6.83676525 C6.34470133,6.83676525 5.96674096,6.71507213 5.75601114,6.47168589 C5.54528132,6.22829964 5.43991641,4.7870298 5.43991641,4.14787636 L5.43991641,3.782797 C5.43991641,2.84734726 5.27848577,2.22406684 4.95562448,1.91295573 C4.63276319,1.60184462 3.99187387,1.44628906 3.03295652,1.44628906 L1.24948625,1.44628906 L1.24948625,3.65263827 L1.95127455,3.65263827 C2.35726778,3.65263827 2.62889659,3.74364356 2.76616097,3.92565414 C2.90342535,4.10766472 2.97205754,4.49708271 2.97205754,5.09390811 L2.97205754,5.42089224 C2.97205754,6.11930494 3.06582265,7.61031023 3.25335285,7.89390811 C3.44088306,8.17750599 3.7782441,8.35951658 4.26543598,8.43993986 C3.7821107,8.52882875 3.44571631,8.71718853 3.25625281,9.00501922 C3.0667893,9.29284991 2.97205754,9.7838552 2.97205754,10.4780351 L2.97205754,10.7796224 C2.97205754,11.3849134 2.9024587,12.7785642 2.76326102,12.9605748 C2.62406334,13.1425854 2.35340119,13.2335906 1.95127455,13.2335906 L1.24948625,13.2335906 L1.24948625,15.4462891 L3.03295652,15.4462891 Z" id="}-copy" transform="translate(4.249486, 8.446289) scale(-1, 1) translate(-4.249486, -8.446289) "/></g></g></g></g></svg><text x="-65" y="-83.5" class="line1"><tspan class="item-source" xml:space="preserve" text-anchor="start"><tspan>Item source</tspan><tspan class="item-source_name"><tspan>: JSON Payload</tspan></tspan></tspan></text></g><g class="content" transform="translate(-199.5,-144.5)"><g class="branch" transform="translate(20,124)"><g transform=""><g class="nodes"><g class="node-container" transform="translate(179.5,24.5)"><g class="sc-bDpDS jYFWGV node state Task" data-testid="graph-Generate Fastq Set Object (with no readset)" data-state-id="Generate Fastq Set Object (with no readset)" data-state-type="Task"><g class="new-look-state-node "><rect x="-179.5" y="-24.5" width="359" height="49" rx="3" ry="3"/><g class="handle" transform="translate(-179.5,-24.5)"><path d="M5,16 L5,34 M8,16 L8,34"/></g><g class="icon" transform="translate(-163.5,-24)"><rect fill="var(--color-background-container-header-etndi4, #fafafa)" x="0.0361026108" y="0.0181291967" width="48" height="48"/><line x1="47.5" y1="0.49122807" x2="47.5" y2="47.5" stroke="var(--color-board-placeholder-active-qurjro, #d5dbdb)" stroke-linecap="square"/><line x1="0.5" y1="0.49122807" x2="0.5" y2="47.5" stroke="var(--color-board-placeholder-active-qurjro, #d5dbdb)" stroke-linecap="square"/><use href="#icon-service-lam" aria-hidden="true"><title>Lambda</title></use></g><g class="text-lines" transform="translate(-107.5,-24.5)"><text transform="translate(0,17)" class="line1"><tspan xml:space="preserve" text-anchor="start">Lambda: Invoke</tspan></text><text transform="translate(0,35.5)" class="line2 label"><tspan xml:space="preserve" text-anchor="start">Generate Fastq Set Object (with no readset)</tspan></text></g></g></g></g><g class="node-container" transform="translate(179.5,92)"><g><circle class="sc-lizKOf eKVsJw shape" r="8"/></g></g></g><g class="edges"><g class="sc-bVHCgj enMGbT edge"><path id="state-Generate Fastq Set Object (with no readset):end:normal" d="M179.5,49L179.5,51.916666666666664C179.5,54.833333333333336,179.5,60.666666666666664,179.5,66.5C179.5,72.33333333333333,179.5,78.16666666666667,179.5,81.08333333333333L179.5,84" marker-end="url(#arrowhead)" fill="none"/></g></g></g></g><g class="sc-bVHCgj enMGbT"><path id="For each library-Generate Fastq Set Object (with no readset)" class="path starting-connection" d="M199.5,69L199.5,73.58333333333333C199.5,78.16666666666667,199.5,87.33333333333333,199.5,91.91666666666667C199.5,96.5,199.5,96.5,199.5,101.08333333333333C199.5,105.66666666666667,199.5,114.83333333333333,199.5,119.41666666666667L199.5,124" fill="none"/></g></g></g><g class="new-look-state-node "><rect x="-120" y="-144.5" width="240" height="49" rx="3" ry="3"/><g class="handle" transform="translate(-120,-144.5)"><path d="M5,16 L5,34 M8,16 L8,34"/></g><g class="icon" transform="translate(-104,-144)"><rect fill="var(--color-background-container-header-etndi4, #fafafa)" x="0.0361026108" y="0.0181291967" width="48" height="48"/><line x1="47.5" y1="0.49122807" x2="47.5" y2="47.5" stroke="var(--color-board-placeholder-active-qurjro, #d5dbdb)" stroke-linecap="square"/><line x1="0.5" y1="0.49122807" x2="0.5" y2="47.5" stroke="var(--color-board-placeholder-active-qurjro, #d5dbdb)" stroke-linecap="square"/><use href="#icon-flow-map"/></g><g class="text-lines" transform="translate(-48,-144.5)"><text transform="translate(0,17)" class="line1"><tspan xml:space="preserve" text-anchor="start">Map state</tspan></text><text transform="translate(0,35.5)" class="line2 label"><tspan xml:space="preserve" text-anchor="start">For each library</tspan></text></g></g></g></g></g><g class="node-container" transform="translate(199.5,500)"><g><circle class="sc-lizKOf eKVsJw shape" r="8"/></g></g></g><g class="edges"><g class="sc-bVHCgj enMGbT edge"><path id="state-Get vars inside map:state-Get BCLConvert Data from SampleSheet:normal" d="M199.5,49L199.5,51.916666666666664C199.5,54.833333333333336,199.5,60.666666666666664,199.5,66.5C199.5,72.33333333333333,199.5,78.16666666666667,199.5,81.08333333333333L199.5,84" marker-end="url(#arrowhead)" fill="none"/></g><g class="sc-bVHCgj enMGbT edge"><path id="state-Get BCLConvert Data from SampleSheet:state-For each library:normal" d="M199.5,133L199.5,135.91666666666666C199.5,138.83333333333334,199.5,144.66666666666666,199.5,150.5C199.5,156.33333333333334,199.5,162.16666666666666,199.5,165.08333333333334L199.5,168" marker-end="url(#arrowhead)" fill="none"/></g><g class="sc-bVHCgj enMGbT edge"><path id="state-For each library:end:normal" d="M199.5,457L199.5,459.9166666666667C199.5,462.8333333333333,199.5,468.6666666666667,199.5,474.5C199.5,480.3333333333333,199.5,486.1666666666667,199.5,489.0833333333333L199.5,492" marker-end="url(#arrowhead)" fill="none"/></g></g></g></g><g class="sc-bVHCgj enMGbT"><path id="For each library (batched)-Get vars inside map" class="path starting-connection" d="M219.5,69L219.5,73.58333333333333C219.5,78.16666666666667,219.5,87.33333333333333,219.5,91.91666666666667C219.5,96.5,219.5,96.5,219.5,101.08333333333333C219.5,105.66666666666667,219.5,114.83333333333333,219.5,119.41666666666667L219.5,124" fill="none"/></g></g></g><g class="new-look-state-node "><rect x="-122.5" y="-348.5" width="245" height="49" rx="3" ry="3"/><g class="handle" transform="translate(-122.5,-348.5)"><path d="M5,16 L5,34 M8,16 L8,34"/></g><g class="icon" transform="translate(-106.5,-348)"><rect fill="var(--color-background-container-header-etndi4, #fafafa)" x="0.0361026108" y="0.0181291967" width="48" height="48"/><line x1="47.5" y1="0.49122807" x2="47.5" y2="47.5" stroke="var(--color-board-placeholder-active-qurjro, #d5dbdb)" stroke-linecap="square"/><line x1="0.5" y1="0.49122807" x2="0.5" y2="47.5" stroke="var(--color-board-placeholder-active-qurjro, #d5dbdb)" stroke-linecap="square"/><use href="#icon-flow-distributedmap"/></g><g class="text-lines" transform="translate(-50.5,-348.5)"><text transform="translate(0,17)" class="line1"><tspan xml:space="preserve" text-anchor="start">Map: JSON Payload</tspan></text><text transform="translate(0,35.5)" class="line2 label"><tspan xml:space="preserve" text-anchor="start">For each library (batched)</tspan></text></g></g></g></g></g><g class="node-container" transform="translate(219.5,1003.5)"><g class="sc-bDpDS jYFWGV node state Task" data-testid="graph-Generate Fastq Set Object Generation Complete Event" data-state-id="Generate Fastq Set Object Generation Complete Event" data-state-type="Task"><g class="new-look-state-node "><rect x="-213.5" y="-24.5" width="427" height="49" rx="3" ry="3"/><g class="handle" transform="translate(-213.5,-24.5)"><path d="M5,16 L5,34 M8,16 L8,34"/></g><g class="icon" transform="translate(-197.5,-24)"><rect fill="var(--color-background-container-header-etndi4, #fafafa)" x="0.0361026108" y="0.0181291967" width="48" height="48"/><line x1="47.5" y1="0.49122807" x2="47.5" y2="47.5" stroke="var(--color-board-placeholder-active-qurjro, #d5dbdb)" stroke-linecap="square"/><line x1="0.5" y1="0.49122807" x2="0.5" y2="47.5" stroke="var(--color-board-placeholder-active-qurjro, #d5dbdb)" stroke-linecap="square"/><use href="#icon-service-events" aria-hidden="true"><title>Amazon EventBridge</title></use></g><g class="text-lines" transform="translate(-141.5,-24.5)"><text transform="translate(0,17)" class="line1"><tspan xml:space="preserve" text-anchor="start">EventBridge: PutEvents</tspan></text><text transform="translate(0,35.5)" class="line2 label"><tspan xml:space="preserve" text-anchor="start">Generate Fastq Set Object Generation Complete Event</tspan></text></g></g></g></g><g class="node-container" transform="translate(219.5,1085)"><g><circle class="sc-hTUWRQ joQcYQ shape" r="22"/><text class="sc-dycYrt cVulIM label"><tspan xml:space="preserve" text-anchor="middle" alignment-baseline="central">End</tspan></text></g></g></g><g class="edges"><g class="sc-bVHCgj enMGbT edge"><path id="state-Set inputs variables:state-Get Libraries in SampleSheet:normal" d="M219.5,128L219.5,130.91666666666666C219.5,133.83333333333334,219.5,139.66666666666666,219.5,145.5C219.5,151.33333333333334,219.5,157.16666666666666,219.5,160.08333333333334L219.5,163" marker-end="url(#arrowhead)" fill="none"/></g><g class="sc-bVHCgj enMGbT edge"><path id="start:state-Set inputs variables" d="M219.5,44L219.5,46.916666666666664C219.5,49.833333333333336,219.5,55.666666666666664,219.5,61.5C219.5,67.33333333333333,219.5,73.16666666666667,219.5,76.08333333333333L219.5,79" marker-end="url(#arrowhead)" fill="none"/></g><g class="sc-bVHCgj enMGbT edge"><path id="state-Get Libraries in SampleSheet:state-For each library (batched):normal" d="M219.5,212L219.5,214.91666666666666C219.5,217.83333333333334,219.5,223.66666666666666,219.5,229.5C219.5,235.33333333333334,219.5,241.16666666666666,219.5,244.08333333333334L219.5,247" marker-end="url(#arrowhead)" fill="none"/></g><g class="sc-bVHCgj enMGbT edge"><path id="state-For each library (batched):state-Generate Fastq Set Object Generation Complete Event:normal" d="M219.5,944L219.5,946.9166666666666C219.5,949.8333333333334,219.5,955.6666666666666,219.5,961.5C219.5,967.3333333333334,219.5,973.1666666666666,219.5,976.0833333333334L219.5,979" marker-end="url(#arrowhead)" fill="none"/></g><g class="sc-bVHCgj enMGbT edge"><path id="state-Generate Fastq Set Object Generation Complete Event:end:normal" d="M219.5,1028L219.5,1030.9166666666667C219.5,1033.8333333333333,219.5,1039.6666666666667,219.5,1045.5C219.5,1051.3333333333333,219.5,1057.1666666666667,219.5,1060.0833333333333L219.5,1063" marker-end="url(#arrowhead)" fill="none"/></g></g><defs><marker id="arrowhead" markerWidth="8" markerHeight="6" refX="7" refY="3" orient="auto" class="sc-czkgLR ifZaxh"><polygon points="0 0, 8 3, 0 6"/></marker><marker id="highlighted-arrowhead" markerWidth="6" markerHeight="4" refX="5" refY="2" orient="auto" class="sc-czkgLR ifZaxh"><polygon points="0 0, 6 2, 0 4"/></marker><marker id="error-arrowhead" markerWidth="6" markerHeight="4" refX="5" refY="2" orient="auto" class="sc-czkgLR ifZaxh"><polygon points="0 0, 6 2, 0 4"/></marker><marker id="large-arrowhead" markerWidth="10" markerHeight="8" refX="9" refY="4" orient="auto" class="sc-czkgLR ifZaxh"><polygon points="0 0, 10 4, 0 8"/></marker><marker id="large-highlighted-arrowhead" markerWidth="5.5" markerHeight="4" refX="4.5" refY="2" orient="auto" class="sc-czkgLR ifZaxh"><polygon points="0 0, 5.5 2, 0 4"/></marker><marker id="large-error-arrowhead" markerWidth="10" markerHeight="8" refX="9" refY="4" orient="auto" class="sc-czkgLR ifZaxh"><polygon points="0 0, 10 4, 0 8"/></marker><linearGradient x1="0%" y1="100%" x2="100%" y2="0%" id="gradient-orange"><stop stop-color="#C8511B" offset="0%"/><stop stop-color="#FF9900" offset="100%"/></linearGradient><linearGradient x1="0%" y1="100%" x2="100%" y2="0%" id="gradient-turquoise"><stop stop-color="#055F4E" offset="0%"/><stop stop-color="#56C0A7" offset="100%"/></linearGradient><linearGradient x1="0%" y1="100%" x2="100%" y2="0%" id="gradient-blue"><stop stop-color="#2E27AD" offset="0%"/><stop stop-color="#527FFF" offset="100%"/></linearGradient><linearGradient x1="0%" y1="100%" x2="100%" y2="0%" id="gradient-pink"><stop stop-color="#B0084D" offset="0%"/><stop stop-color="#FF4F8B" offset="100%"/></linearGradient><linearGradient x1="0%" y1="100%" x2="100%" y2="0%" id="gradient-red"><stop stop-color="#BD0816" offset="0%"/><stop stop-color="#FF5252" offset="100%"/></linearGradient><linearGradient x1="0%" y1="100%" x2="100%" y2="0%" id="gradient-green"><stop stop-color="#1B660F" offset="0%"/><stop stop-color="#6CAE3E" offset="100%"/></linearGradient><linearGradient x1="0%" y1="100%" x2="100%" y2="0%" id="gradient-purple"><stop stop-color="#4D27A8" offset="0%"/><stop stop-color="#A166FF" offset="100%"/></linearGradient><linearGradient x1="0%" y1="100%" x2="100%" y2="0%" id="gradient-grey"><stop stop-color="#DCDCDC" offset="0%"/><stop stop-color="#F6F5F7" offset="100%"/></linearGradient><linearGradient x1="0%" y1="100%" x2="100%" y2="0%" id="gradient-light-pink"><stop stop-color="#DD344C" offset="0%"/><stop stop-color="#DD344C" offset="100%"/></linearGradient>,<linearGradient x1="0%" y1="100%" x2="100%" y2="0%" id="gradient-ag"><stop stop-color="#BC1356" offset="0%"/><stop stop-color="#F34482" offset="100%"/></linearGradient><linearGradient x1="0%" y1="100%" x2="100%" y2="0%" id="gradient-athena"><stop stop-color="#5930B5" offset="0%"/><stop stop-color="#945DF2" offset="100%"/></linearGradient><linearGradient x1="0%" y1="100%" x2="100%" y2="0%" id="gradient-emr"><stop stop-color="#5930B5" offset="0%"/><stop stop-color="#945DF2" offset="100%"/></linearGradient><linearGradient x1="0%" y1="100%" x2="100%" y2="0%" id="gradient-glue"><stop stop-color="#5930B5" offset="0%"/><stop stop-color="#945DF2" offset="100%"/></linearGradient><linearGradient x1="0%" y1="100%" x2="100%" y2="0%" id="gradient-sns"><stop stop-color="#BC1356" offset="0%"/><stop stop-color="#F34482" offset="100%"/></linearGradient><linearGradient x1="0%" y1="100%" x2="100%" y2="0%" id="gradient-states"><stop stop-color="#BC1356" offset="0%"/><stop stop-color="#F34482" offset="100%"/></linearGradient><linearGradient x1="0%" y1="100%" x2="100%" y2="0%" id="gradient-generic"><stop stop-color="#ccc" offset="0%"/><stop stop-color="#ddd" offset="100%"/></linearGradient><g stroke="none" stroke-width="1" fill="none" fill-rule="evenodd" id="icon-flow-pass"><g transform="translate(10.500000, 8.750000)" fill="#0073BB" fill-rule="nonzero"><path d="M13.8217363,31.2803301 L13.7368454,31.3532508 L13.7368454,31.3532508 L13.6534426,31.407053 L13.6534426,31.407053 L13.6052878,31.4313839 L13.6052878,31.4313839 L13.5081671,31.4681458 L13.5081671,31.4681458 L13.4513711,31.4828395 L13.4513711,31.4828395 L13.3846755,31.4942127 L13.3846755,31.4942127 L13.3412428,31.498357 L13.3412428,31.498357 L13.241495,31.498357 L13.241495,31.498357 L13.1802045,31.4917588 L13.1802045,31.4917588 L13.1314644,31.4828361 L13.1314644,31.4828361 L13.0652921,31.4652652 L12.9776235,31.4314294 L12.9776235,31.4314294 L12.9293782,31.4070608 L12.9293782,31.4070608 L12.8294824,31.3409596 L12.7610762,31.2803301 L12.7610762,31.2803301 L8.26107616,26.7803301 C7.96818295,26.4874369 7.96818295,26.0125631 8.26107616,25.7196699 C8.52734273,25.4534034 8.94400641,25.4291973 9.2376179,25.6470518 L9.32173634,25.7196699 L12.5814063,28.979 L12.581,19.7495522 L3.5,19.75 C1.6314366,19.75 0.104873551,18.2857224 0.00517886273,16.4420352 L0,16.25 L0,12.25 C0,10.3814366 1.4642776,8.85487355 3.3079648,8.75517886 L3.5,8.75 L11.686,8.74955216 L11.686,10.2495522 L3.5,10.25 C2.4456382,10.25 1.58183488,11.0658778 1.50548574,12.1007377 L1.5,12.25 L1.5,16.25 C1.5,17.3043618 2.31587779,18.1681651 3.35073766,18.2445143 L3.5,18.25 L22.5,18.25 C23.5543618,18.25 24.4181651,17.4341222 24.4945143,16.3992623 L24.5,16.25 L24.5,12.25 C24.5,11.1956382 23.6841222,10.3318349 22.6492623,10.2554857 L22.5,10.25 L15.686,10.2495522 L15.686,8.74955216 L22.5,8.75 C24.3685634,8.75 25.8951264,10.2142776 25.9948211,12.0579648 L26,12.25 L26,16.25 C26,18.1185634 24.5357224,19.6451264 22.6920352,19.7448211 L22.5,19.75 L14.081,19.7495522 L14.0814063,28.899 L17.2610762,25.7196699 L17.3451946,25.6470518 C17.6388061,25.4291973 18.0554698,25.4534034 18.3217363,25.7196699 C18.5880029,25.9859365 18.6122089,26.4026002 18.3943545,26.6962117 L18.3217363,26.7803301 L13.8217363,31.2803301 Z" fill="false"/><polygon points="14.0818291 0 14.0818291 14.5 12.5818291 14.5 12.5818291 0" fill="false"/></g></g><g stroke="none" stroke-width="1" fill="none" fill-rule="evenodd" id="icon-flow-map"><g transform="translate(7.250000, 12.250000)" fill="#0073BB" fill-rule="nonzero"><path d="M18.75 6.75C19.3023 6.75 19.75 7.19772 19.75 7.75V10.75C19.75 11.3023 19.3023 11.75 18.75 11.75H17V14.75H18.75C19.3023 14.75 19.75 15.1977 19.75 15.75V18.75C19.75 19.3023 19.3023 19.75 18.75 19.75H13.75C13.1977 19.75 12.75 19.3023 12.75 18.75V15.75C12.75 15.1977 13.1977 14.75 13.75 14.75H15.5V11.75H13.75C13.1977 11.75 12.75 11.3023 12.75 10.75V7.75C12.75 7.19772 13.1977 6.75 13.75 6.75H18.75ZM18.25 16.25H14.25V18.25H18.25V16.25ZM18.25 8.25H14.25V10.25H18.25V8.25Z" fill="false"/><path d="M4.36774 12.9782L4.25582 12.9874L4.16664 12.9828L4.0991 12.9721L4.01773 12.9507L3.91439 12.9084L3.84086 12.8662L3.80379 12.8403L3.71967 12.7677L0.21967 9.26773C-0.0732233 8.97484 -0.0732233 8.49996 0.21967 8.20707C0.485936 7.9408 0.9026 7.9166 1.19621 8.13445L1.28033 8.20707L3.5 10.427V5.75C3.5 2.64821 5.95602 0.120063 9.02944 0.00415208L9.25 0H24.25C27.3101 0 29.8183 2.39279 29.9906 5.418L29.9991 5.65629L30 7.75C30 8.16421 29.6642 8.5 29.25 8.5C28.8358 8.5 28.5 8.16421 28.5 7.75L28.4992 5.66855C28.4572 3.42607 26.6797 1.6129 24.4594 1.50507L24.25 1.5H9.25C6.97183 1.5 5.11231 3.29251 5.0049 5.54408L5 5.75V10.426L7.21967 8.20707L7.30379 8.13445C7.5974 7.9166 8.01406 7.9408 8.28033 8.20707C8.5466 8.47334 8.5708 8.89 8.35295 9.18361L8.28033 9.26773L4.78033 12.7677C4.7427 12.8054 4.70207 12.8382 4.65921 12.8661L4.58539 12.9085L4.50826 12.9417L4.44164 12.9626L4.36774 12.9782Z" fill="false"/><path d="M29.1567 12.4673L29.2442 12.4615L29.3612 12.4698L29.4099 12.4787L29.4761 12.4963L29.5349 12.5175L29.6052 12.5507L29.6962 12.6086L29.7803 12.6812L33.2803 16.1812C33.5732 16.4741 33.5732 16.949 33.2803 17.2419C33.0141 17.5081 32.5974 17.5323 32.3038 17.3145L32.2197 17.2419L30 15.0225V19.75C30 22.8518 27.544 25.3799 24.4706 25.4959L24.25 25.5H9.25C6.22365 25.5 3.73213 23.158 3.5153 20.1725L3.503 19.9226L3.5 17.75C3.5 17.3358 3.83579 17 4.25 17C4.6297 17 4.94349 17.2822 4.99315 17.6482L5 17.75L5.00248 19.8967C5.07738 22.112 6.8452 23.8894 9.04276 23.995L9.25 24H24.25C26.5282 24 28.3877 22.2075 28.4951 19.9559L28.5 19.75V15.0215L26.2803 17.2419L26.1962 17.3145C25.9026 17.5323 25.4859 17.5081 25.2197 17.2419C24.9534 16.9756 24.9292 16.5589 25.1471 16.2653L25.2197 16.1812L28.7197 12.6812L28.797 12.6137L28.8948 12.5507L28.965 12.5176L29.0427 12.4906L29.09 12.4787L29.1567 12.4673Z" fill="false"/></g></g><g stroke="none" stroke-width="1" fill="none" fill-rule="evenodd" id="icon-flow-distributedmap"><use href="#icon-flow-map"/></g><g stroke="none" stroke-width="1" fill="none" fill-rule="evenodd" id="icon-flow-distributedmap"><use href="#icon-flow-map"/></g><g stroke="none" stroke-width="1" fill="none" fill-rule="evenodd" id="icon-service-lam"><polygon fill="url(#gradient-orange)" fill-rule="nonzero" points="0 0 48 0 48 48 0 48"/><g transform="translate(11, 10)" fill="#FFFFFF"><path d="M26.5889213,27.8937088 L19.6925948,27.8937088 C19.4772752,27.8931074 19.2813916,27.7706914 19.1888047,27.578869 L9.43766764,7.45673404 L5.31218659,7.45673404 C5.00303594,7.45673404 4.75241983,7.20943823 4.75241983,6.90438337 L4.75241983,0.828526005 C4.75241983,0.523471153 5.00303594,0.276175335 5.31218659,0.276175335 L13.9325948,0.276175335 C14.1479143,0.276776788 14.3437979,0.399192787 14.4363848,0.591015217 L24.1427405,20.7131501 L26.5889213,20.7131501 C26.8980719,20.7131501 27.148688,20.9604459 27.148688,21.2655008 L27.148688,27.3413582 C27.148688,27.646413 26.8980719,27.8937088 26.5889213,27.8937088 Z M20.0452478,26.7890075 L26.0291545,26.7890075 L26.0291545,21.8178515 L23.7900875,21.8178515 C23.5747679,21.81725 23.3788843,21.694834 23.2862974,21.5030116 L13.5799417,1.38087667 L5.87755102,1.38087667 L5.87755102,6.3520327 L9.79591837,6.3520327 C10.0112379,6.35263416 10.2071215,6.47505016 10.2997085,6.66687259 L20.0452478,26.7890075 Z"/><path d="M8.10542274,27.8937099 L0.82845481,27.8937099 C0.635054571,27.8940907 0.455155006,27.7959347 0.352653061,27.634104 C0.243858391,27.4681848 0.233185428,27.2575536 0.324664723,27.0817533 L7.93749271,11.3894708 C8.03007964,11.1976484 8.22596323,11.0752324 8.4412828,11.0746298 L8.4412828,11.0746298 C8.65533487,11.0742082 8.85089022,11.1942751 8.94507289,11.3839473 L12.5891545,18.7799228 C12.6634688,18.931712 12.6634688,19.1086786 12.5891545,19.2604679 L8.6148105,27.5457279 C8.53147526,27.7523199 8.33072312,27.8894609 8.10542274,27.8937099 L8.10542274,27.8937099 Z M1.72408163,26.7890075 L7.75276968,26.7890075 L11.4640233,19.0560981 L8.44688047,12.8973881 L1.72408163,26.7890075 Z"/></g></g><g stroke="none" stroke-width="1" fill="none" fill-rule="evenodd" id="icon-service-events"><g fill="url(#gradient-pink)" fill-rule="nonzero"><rect x="0" y="0" width="48" height="48"/></g><path d="M31.2584891,38.2790698 C30.1297571,38.2790698 29.2116636,37.367814 29.2116636,36.2474884 C29.2116636,35.1271628 30.1297571,34.215907 31.2584891,34.215907 C32.3872211,34.215907 33.3053146,35.1271628 33.3053146,36.2474884 C33.3053146,37.367814 32.3872211,38.2790698 31.2584891,38.2790698 L31.2584891,38.2790698 Z M26.4152555,28.9069767 L20.5442511,28.9069767 L17.6083857,23.8604651 L20.5442511,18.8139535 L26.4152555,18.8139535 L29.3511208,23.8604651 L26.4152555,28.9069767 Z M16.4680323,13.5050233 C15.3393003,13.5050233 14.4204804,12.5937674 14.4204804,11.4734419 C14.4204804,10.3531163 15.3393003,9.44186047 16.4680323,9.44186047 C17.5960379,9.44186047 18.5148577,10.3531163 18.5148577,11.4734419 C18.5148577,12.5937674 17.5960379,13.5050233 16.4680323,13.5050233 L16.4680323,13.5050233 Z M31.2584891,32.7740465 C30.8677183,32.7740465 30.4980114,32.8526279 30.1464629,32.9701395 L27.9093364,29.2227442 L30.8190535,24.2209302 C30.948342,23.9974419 30.948342,23.7234884 30.8190535,23.5 L27.4633638,17.7325581 C27.3340753,17.5090698 27.0943832,17.372093 26.8343535,17.372093 L20.8333343,17.372093 L18.8315419,14.0190465 C19.5251964,13.383907 19.9675373,12.4820233 19.9675373,11.4734419 C19.9675373,9.55865116 18.397917,8 16.4680323,8 C14.5374211,8 12.9678009,9.55865116 12.9678009,11.4734419 C12.9678009,13.3889535 14.5374211,14.9468837 16.4680323,14.9468837 C16.8588031,14.9468837 17.22851,14.8683023 17.5800585,14.7507907 L19.4293195,17.847186 L16.1411794,23.5 C16.0111645,23.7234884 16.0111645,23.9974419 16.1411794,24.2209302 L19.4961428,29.9883721 C19.6254313,30.2118605 19.8651234,30.3488372 20.125153,30.3488372 L26.8343535,30.3488372 C26.8532384,30.3488372 26.8706705,30.3430698 26.8881027,30.3416279 L28.8949795,33.7018837 C28.201325,34.3370233 27.7589841,35.238907 27.7589841,36.2474884 C27.7589841,38.1622791 29.3286043,39.7209302 31.2584891,39.7209302 C33.1883739,39.7209302 34.7579941,38.1622791 34.7579941,36.2474884 C34.7579941,34.3319767 33.1883739,32.7740465 31.2584891,32.7740465 L31.2584891,32.7740465 Z M34.6265266,19.2724651 C33.4977946,19.2724651 32.5789748,18.3612093 32.5789748,17.2408837 C32.5789748,16.1205581 33.4977946,15.2093023 34.6265266,15.2093023 C35.7545323,15.2093023 36.6733521,16.1205581 36.6733521,17.2408837 C36.6733521,18.3612093 35.7545323,19.2724651 34.6265266,19.2724651 L34.6265266,19.2724651 Z M36.8222518,19.9234651 C37.6110568,19.2861628 38.1260317,18.3273256 38.1260317,17.2408837 C38.1260317,15.326093 36.5564114,13.7674419 34.6265266,13.7674419 C34.1667536,13.7674419 33.7302233,13.8611628 33.3285575,14.0219302 L31.3616293,11.1951628 C31.2250775,11.0005116 31.0013648,10.8837209 30.7631254,10.8837209 L24.2260674,10.8837209 L24.2260674,12.3255814 L30.3825233,12.3255814 L32.1206544,14.8243256 C31.50835,15.450093 31.1262953,16.3015116 31.1262953,17.2408837 C31.1262953,19.1563953 32.6959155,20.7143256 34.6265266,20.7143256 C34.9395791,20.7143256 35.2381047,20.6602558 35.5279143,20.5831163 L37.4352825,23.8604651 L34.6606646,28.6301395 L35.9186851,29.3510698 L38.9024889,24.2209302 C39.0325037,23.9974419 39.0325037,23.7234884 38.9024889,23.5 L36.8222518,19.9234651 Z M12.8363334,32.2492093 C11.7076014,32.2492093 10.7887816,31.3379535 10.7887816,30.2176279 C10.7887816,29.0973023 11.7076014,28.1860465 12.8363334,28.1860465 C13.9643391,28.1860465 14.8831589,29.0973023 14.8831589,30.2176279 C14.8831589,31.3379535 13.9643391,32.2492093 12.8363334,32.2492093 L12.8363334,32.2492093 Z M14.936908,32.9780698 C15.7809148,32.3436512 16.3358384,31.3480465 16.3358384,30.2176279 C16.3358384,28.3028372 14.7662182,26.744186 12.8363334,26.744186 C12.3308009,26.744186 11.8528693,26.8559302 11.4192445,27.0476977 L9.56489904,23.8604651 L12.7891213,18.3172326 L11.5311008,17.5963023 L8.09696636,23.5 C7.96767788,23.7234884 7.96767788,23.9974419 8.09696636,24.2209302 L10.2411214,27.9077674 C9.68547145,28.5234419 9.33610202,29.3272791 9.33610202,30.2176279 C9.33610202,32.1331395 10.9057223,33.6910698 12.8363334,33.6910698 C13.1014474,33.6910698 13.357119,33.6564651 13.6048009,33.6009535 L15.6385522,36.5257674 C15.7743778,36.7204186 15.9973641,36.8372093 16.2363299,36.8372093 L22.7733878,36.8372093 L22.7733878,35.3953488 L16.6183846,35.3953488 L14.936908,32.9780698 Z" fill="#FFFFFF"/></g></defs></g></svg>
